# xmcd CD database file
#
# Track frame offsets:
#	150
#	14508
#	40230
#	51900
#	64960
#	82981
#	102447
#	119575
#	134424
#	150865
#	165742
#	189439
#
# Disc length: 2652 seconds
#
# Revision: 1
# Processed by: cddbd v1.5.1PL2 Copyright (c) Steve Scherf et al.
# Submitted via: Feurio! 1.68 - http://www.feurio.com
#
DISCID=9e0a5a0c
DTITLE=Albie Donnelly - The very best of Mr. Supercharge [CD1)
DYEAR=1900
DGENRE=jazz
TTITLE0=In A Sentimental Mood
TTITLE1=Queen Of My Soul
TTITLE2=I Won't Cry Anymore
TTITLE3=Night And Day
TTITLE4=My Funny Valentine
TTITLE5=Personal Manager
TTITLE6=The Night Time Is The Right Time
TTITLE7=I'm A Boogie Man
TTITLE8=Go To Work
TTITLE9=Main Squeeze
TTITLE10=Heartquake
TTITLE11=Harlem Nocturne
EXTD=
EXTT0=
EXTT1=
EXTT2=
EXTT3=
EXTT4=
EXTT5=
EXTT6=
EXTT7=
EXTT8=
EXTT9=
EXTT10=
EXTT11=
PLAYORDER=
